<?xml version="1.0" encoding="UTF-8" standalone="no"?>
<!-- Created with Inkscape (http://www.inkscape.org/) -->

<svg
   width="512"
   height="512"
   viewBox="0 0 512 512"
   version="1.1"
   id="svg1"
   xml:space="preserve"
   inkscape:version="1.4.3 (0d15f75042, 2025-12-25)"
   sodipodi:docname="ch-logo.svg"
   xmlns:inkscape="http://www.inkscape.org/namespaces/inkscape"
   xmlns:sodipodi="http://sodipodi.sourceforge.net/DTD/sodipodi-0.dtd"
   xmlns="http://www.w3.org/2000/svg"
   xmlns:svg="http://www.w3.org/2000/svg"><sodipodi:namedview
     id="namedview1"
     pagecolor="#ffffff"
     bordercolor="#000000"
     borderopacity="0.25"
     inkscape:showpageshadow="2"
     inkscape:pageopacity="0.0"
     inkscape:pagecheckerboard="0"
     inkscape:deskcolor="#d1d1d1"
     inkscape:document-units="px"
     inkscape:zoom="0.78808594"
     inkscape:cx="41.873606"
     inkscape:cy="297.55638"
     inkscape:window-width="1920"
     inkscape:window-height="1016"
     inkscape:window-x="0"
     inkscape:window-y="0"
     inkscape:window-maximized="1"
     inkscape:current-layer="layer1" /><defs
     id="defs1" /><g
     inkscape:label="Layer 1"
     inkscape:groupmode="layer"
     id="layer1"><path
       style="fill:#0cfb0c;stroke:none;stroke-width:2.69885"
       d="m 191.89009,108.91281 c 15.98582,12.28784 41.77257,46.00676 62.07349,48.24748 18.59455,2.05233 51.32105,-36.57973 64.77235,-48.24748 L 255.31301,3.6577547 M 116.32237,117.00936 c 0.002,20.57597 -1.84956,49.22232 9.53656,67.15949 16.78331,26.43972 51.31077,31.15363 76.82448,45.34593 13.84049,7.69895 23.27671,22.40548 37.78593,27.83464 -1.84931,-21.19928 0.6745,-52.27096 -12.54464,-70.00066 -26.05848,-34.94997 -78.21161,-34.40543 -106.20464,-70.3394 h -5.39769 m 272.5836,0 c -26.93344,36.91889 -80.07436,34.93363 -105.61878,70.33976 -13.44439,18.63471 -10.43167,48.17157 -10.43167,70.0003 12.75676,-7.82854 21.88287,-20.00088 35.08501,-27.46813 25.71533,-14.54474 64.17386,-19.64447 79.21587,-48.12805 9.53796,-18.06112 7.14727,-44.87709 7.14727,-64.74388 h -5.3977 M 86.635034,189.87824 c -2.381619,10.84019 -0.46318,21.34084 0.04501,32.38617 0.679736,14.77127 0.124684,35.21605 6.808898,48.57925 19.615348,39.21599 71.720498,46.17551 106.497578,65.67611 16.12451,9.04151 25.55876,24.39488 40.48271,34.18126 0,-25.53783 3.3503,-60.82256 -9.68581,-83.65526 -19.81429,-34.70485 -65.44764,-41.85798 -98.26803,-58.74156 -19.05298,-9.80132 -29.96253,-25.02066 -45.880411,-38.42597 m 334.657111,0 C 386.21951,240.88517 312.14645,235.5357 280.66428,287.11 c -13.14436,21.53313 -10.49296,58.91002 -10.50767,83.59103 16.08308,-9.60542 26.08805,-26.20506 43.18157,-35.5928 33.03608,-18.14336 79.98819,-24.16546 101.11655,-58.94012 13.78165,-22.68283 11.8815,-60.41464 12.23505,-86.28987 h -5.39769 M 40.754628,265.44597 c -2.77287,15.00373 -0.860632,33.33311 0.823261,48.57926 1.969942,17.83614 0.751516,40.10244 8.076063,56.6758 24.219428,54.8016 98.598878,63.10558 144.934988,89.87828 21.72014,12.54975 33.65085,35.2638 53.97695,47.76294 -0.18271,-31.70511 2.33613,-82.63081 -13.65113,-110.65274 C 207.34282,349.36218 143.03226,339.78395 97.43042,315.99729 73.230004,303.37398 60.376042,282.92659 40.754628,265.44597 m 426.417922,0 c -45.20788,70.21232 -141.26254,61.29056 -187.27004,126.91905 -19.5045,27.82264 -16.89533,82.72613 -17.84238,115.97723 19.78349,-11.23948 30.87697,-34.09754 51.27811,-46.1414 47.71063,-28.16611 118.3569,-35.38665 146.78837,-88.8013 14.5225,-27.28363 12.38108,-77.27171 12.44364,-107.95358 z"
       id="path1"
       sodipodi:nodetypes="cscccsscscccscsscccccsccsccscsscccssscssccscsscc" /></g></svg>
